REM DIRINDEX 1\2\6,1\2\7,1\2\8,1\2\9,1\3\10,1\3\11,1\4\12,1\4\13,1\4\14,1\5\15,1\5\16,1\5\17
REM DIRNAME cjc029,folder01,folder02,folder03,folder04,folder05,folder06,folder07,folder08,folder09,folder10,folder11,folder12,folder13,folder14,folder15,folder16
TITLE ""
FILE "1400_3_sec09_0850_0867.mp3" MP3
  TRACK 01 AUDIO
    TITLE "0:"
    INDEX 01 00:00:00
  TRACK 02 AUDIO
    TITLE "17:cjc029_6135"
    INDEX 01 00:00:15
  TRACK 03 AUDIO
    TITLE "0:"
    INDEX 01 00:02:14
  TRACK 04 AUDIO
    TITLE "16:cjc029_6136"
    INDEX 01 00:02:26
  TRACK 05 AUDIO
    TITLE "0:"
    INDEX 01 00:03:39
  TRACK 06 AUDIO
    TITLE "17:cjc029_6137"
    INDEX 01 00:04:21
  TRACK 07 AUDIO
    TITLE "0:"
    INDEX 01 00:06:41
  TRACK 08 AUDIO
    TITLE "16:cjc029_6138"
    INDEX 01 00:06:49
  TRACK 09 AUDIO
    TITLE "0:"
    INDEX 01 00:07:52
  TRACK 10 AUDIO
    TITLE "17:cjc029_6139"
    INDEX 01 00:08:38
  TRACK 11 AUDIO
    TITLE "0:"
    INDEX 01 00:09:36
  TRACK 12 AUDIO
    TITLE "16:cjc029_6140"
    INDEX 01 00:09:42
  TRACK 13 AUDIO
    TITLE "0:"
    INDEX 01 00:10:35
  TRACK 14 AUDIO
    TITLE "17:cjc029_6141"
    INDEX 01 00:11:19
  TRACK 15 AUDIO
    TITLE "0:"
    INDEX 01 00:12:48
  TRACK 16 AUDIO
    TITLE "16:cjc029_6142"
    INDEX 01 00:12:56
  TRACK 17 AUDIO
    TITLE "0:"
    INDEX 01 00:13:53
  TRACK 18 AUDIO
    TITLE "17:cjc029_6143"
    INDEX 01 00:14:37
  TRACK 19 AUDIO
    TITLE "0:"
    INDEX 01 00:15:38
  TRACK 20 AUDIO
    TITLE "16:cjc029_6144"
    INDEX 01 00:15:42
  TRACK 21 AUDIO
    TITLE "0:"
    INDEX 01 00:16:51
  TRACK 22 AUDIO
    TITLE "17:cjc029_6145"
    INDEX 01 00:17:35
  TRACK 23 AUDIO
    TITLE "0:"
    INDEX 01 00:18:54
  TRACK 24 AUDIO
    TITLE "16:cjc029_6146"
    INDEX 01 00:18:60
  TRACK 25 AUDIO
    TITLE "0:"
    INDEX 01 00:20:02
  TRACK 26 AUDIO
    TITLE "17:cjc029_6147"
    INDEX 01 00:20:63
  TRACK 27 AUDIO
    TITLE "0:"
    INDEX 01 00:21:62
  TRACK 28 AUDIO
    TITLE "16:cjc029_6148"
    INDEX 01 00:21:68
  TRACK 29 AUDIO
    TITLE "0:"
    INDEX 01 00:23:03
  TRACK 30 AUDIO
    TITLE "17:cjc029_6149"
    INDEX 01 00:23:59
  TRACK 31 AUDIO
    TITLE "0:"
    INDEX 01 00:24:53
  TRACK 32 AUDIO
    TITLE "16:cjc029_6150"
    INDEX 01 00:24:57
  TRACK 33 AUDIO
    TITLE "0:"
    INDEX 01 00:25:66
  TRACK 34 AUDIO
    TITLE "17:cjc029_6151"
    INDEX 01 00:26:50
  TRACK 35 AUDIO
    TITLE "0:"
    INDEX 01 00:29:38
  TRACK 36 AUDIO
    TITLE "16:cjc029_6152"
    INDEX 01 00:29:44
  TRACK 37 AUDIO
    TITLE "0:"
    INDEX 01 00:31:08
  TRACK 38 AUDIO
    TITLE "17:cjc029_6153"
    INDEX 01 00:31:65
  TRACK 39 AUDIO
    TITLE "0:"
    INDEX 01 00:34:38
  TRACK 40 AUDIO
    TITLE "16:cjc029_6154"
    INDEX 01 00:34:43
  TRACK 41 AUDIO
    TITLE "0:"
    INDEX 01 00:35:51
  TRACK 42 AUDIO
    TITLE "17:cjc029_6155"
    INDEX 01 00:36:35
  TRACK 43 AUDIO
    TITLE "0:"
    INDEX 01 00:38:41
  TRACK 44 AUDIO
    TITLE "16:cjc029_6156"
    INDEX 01 00:38:49
  TRACK 45 AUDIO
    TITLE "0:"
    INDEX 01 00:39:52
  TRACK 46 AUDIO
    TITLE "17:cjc029_6157"
    INDEX 01 00:40:40
  TRACK 47 AUDIO
    TITLE "0:"
    INDEX 01 00:41:53
  TRACK 48 AUDIO
    TITLE "16:cjc029_6158"
    INDEX 01 00:41:67
  TRACK 49 AUDIO
    TITLE "0:"
    INDEX 01 00:43:23
  TRACK 50 AUDIO
    TITLE "17:cjc029_6159"
    INDEX 01 00:44:07
  TRACK 51 AUDIO
    TITLE "0:"
    INDEX 01 00:46:23
  TRACK 52 AUDIO
    TITLE "16:cjc029_6160"
    INDEX 01 00:46:29
  TRACK 53 AUDIO
    TITLE "0:"
    INDEX 01 00:47:42
  TRACK 54 AUDIO
    TITLE "17:cjc029_6161"
    INDEX 01 00:48:28
  TRACK 55 AUDIO
    TITLE "0:"
    INDEX 01 00:49:45
  TRACK 56 AUDIO
    TITLE "16:cjc029_6162"
    INDEX 01 00:49:49
  TRACK 57 AUDIO
    TITLE "0:"
    INDEX 01 00:50:50
  TRACK 58 AUDIO
    TITLE "17:cjc029_6163"
    INDEX 01 00:51:38
  TRACK 59 AUDIO
    TITLE "0:"
    INDEX 01 00:52:41
  TRACK 60 AUDIO
    TITLE "16:cjc029_6164"
    INDEX 01 00:52:47
  TRACK 61 AUDIO
    TITLE "0:"
    INDEX 01 00:53:62
  TRACK 62 AUDIO
    TITLE "17:cjc029_6165"
    INDEX 01 00:54:46
  TRACK 63 AUDIO
    TITLE "0:"
    INDEX 01 00:55:51
  TRACK 64 AUDIO
    TITLE "16:cjc029_6166"
    INDEX 01 00:55:59
  TRACK 65 AUDIO
    TITLE "0:"
    INDEX 01 00:56:71
  TRACK 66 AUDIO
    TITLE "17:cjc029_6167"
    INDEX 01 00:57:52
  TRACK 67 AUDIO
    TITLE "0:"
    INDEX 01 00:59:00
  TRACK 68 AUDIO
    TITLE "16:cjc029_6168"
    INDEX 01 00:59:04
  TRACK 69 AUDIO
    TITLE "0:"
    INDEX 01 01:00:08
  TRACK 70 AUDIO
    TITLE "17:cjc029_6169"
    INDEX 01 01:00:68
  TRACK 71 AUDIO
    TITLE "0:"
    INDEX 01 01:03:41
  TRACK 72 AUDIO
    TITLE "16:cjc029_6170"
    INDEX 01 01:03:43
  TRACK 73 AUDIO
    TITLE "0:"
    INDEX 01 01:04:50
